<?xml version="1.0" encoding="UTF-8"?><svg id="Layer_1" xmlns="http://www.w3.org/2000/svg" width="1594" height="243" viewBox="0 0 1594 243"><defs><style>.cls-1{fill:#cc0f1e;stroke-width:0px;}</style></defs><path class="cls-1" d="M116.99,132.93l47.39,6.3c-2.61,11.55-6.9,21.55-12.86,30-5.96,8.45-13.57,15.01-22.84,19.69-9.27,4.67-21.05,7.02-35.33,7.02s-25.29-1.5-34.47-4.51-17.08-7.87-23.7-14.59-11.8-14.61-15.55-23.68c-3.76-9.06-5.63-21.08-5.63-36.05s2.28-28.66,6.86-39.06c3.35-7.63,7.92-14.47,13.72-20.53,5.8-6.06,11.76-10.56,17.88-13.52,9.72-4.67,22.17-7.01,37.35-7.01,21.23,0,37.41,4.44,48.56,13.32,11.14,8.88,18.96,21.86,23.45,38.95l-46.9,7.3c-1.47-6.49-4.14-11.38-8.02-14.68-3.88-3.29-9.08-4.94-15.61-4.94-8.25,0-14.92,3.45-20.02,10.36-5.1,6.91-7.65,17.37-7.65,31.37,0,12.48,2.53,21.96,7.59,28.44,5.06,6.48,11.51,9.72,19.35,9.72,6.53,0,12.02-1.95,16.47-5.87,4.45-3.91,7.78-9.93,9.98-18.04Z"/><path class="cls-1" d="M183.38,139.18c0-16.65,5.28-30.38,15.86-41.17,10.57-10.79,24.85-16.19,42.83-16.19,20.56,0,36.09,6.34,46.6,19.02,8.44,10.21,12.67,22.79,12.67,37.73,0,16.79-5.24,30.55-15.71,41.28-10.48,10.73-24.96,16.09-43.46,16.09-16.5,0-29.84-4.45-40.03-13.37-12.51-11.03-18.76-25.5-18.76-43.39ZM222.82,139.08c0,9.73,1.85,16.93,5.56,21.59,3.71,4.66,8.36,6.99,13.97,6.99s10.33-2.3,13.97-6.89c3.64-4.59,5.46-11.96,5.46-22.1,0-9.46-1.84-16.5-5.51-21.13s-8.22-6.94-13.63-6.94c-5.74,0-10.48,2.35-14.21,7.04-3.74,4.7-5.61,11.84-5.61,21.44Z"/><path class="cls-1" d="M326.22,235V84.28h36.84v16.14c5.09-6.79,9.77-11.38,14.02-13.78,5.74-3.22,12.09-4.83,19.05-4.83,13.73,0,24.35,5.59,31.86,16.76,7.51,11.17,11.26,24.98,11.26,41.43,0,18.16-4.09,32.02-12.28,41.59-8.19,9.56-18.53,14.34-31.04,14.34-6.06,0-11.59-1.1-16.58-3.29-5-2.19-9.46-5.45-13.39-9.77v52.12h-39.74ZM365.66,139.18c0,8.64,1.71,15.05,5.12,19.23,3.42,4.18,7.73,6.27,12.96,6.27,4.58,0,8.41-2,11.51-6.01s4.64-10.81,4.64-20.41c0-8.84-1.61-15.33-4.83-19.48-3.22-4.15-7.15-6.22-11.8-6.22-5.03,0-9.22,2.09-12.57,6.27-3.35,4.18-5.03,10.97-5.03,20.36Z"/><path class="cls-1" d="M577.83,147.15h-78.89c.71,6.72,2.42,11.72,5.12,15.01,3.8,4.73,8.76,7.09,14.89,7.09,3.87,0,7.54-1.03,11.02-3.08,2.13-1.3,4.41-3.6,6.86-6.89l38.77,3.8c-5.93,10.97-13.09,18.83-21.46,23.59-8.38,4.76-20.4,7.15-36.06,7.15-13.6,0-24.3-2.04-32.1-6.12-7.8-4.08-14.26-10.55-19.39-19.43-5.12-8.88-7.69-19.31-7.69-31.31,0-17.07,5.14-30.88,15.42-41.43,10.28-10.55,24.48-15.83,42.59-15.83,14.7,0,26.3,2.36,34.81,7.09s14.99,11.58,19.43,20.56c4.45,8.98,6.67,20.66,6.67,35.06v4.73ZM537.8,127.1c-.77-8.09-2.82-13.88-6.14-17.37-3.32-3.5-7.69-5.24-13.1-5.24-6.25,0-11.25,2.64-14.99,7.92-2.39,3.29-3.9,8.19-4.54,14.7h38.77Z"/><path class="cls-1" d="M598.68,83.23h36.64v17.79c5.48-7.26,11.02-12.46,16.63-15.58,5.61-3.12,12.44-4.68,20.5-4.68,10.89,0,19.42,3.44,25.57,10.33,6.15,6.89,9.23,17.53,9.23,31.92v69.4h-39.54v-60.04c0-6.85-1.19-11.7-3.58-14.55-2.39-2.84-5.74-4.27-10.06-4.27-4.77,0-8.64,1.92-11.6,5.76-2.97,3.84-4.45,10.73-4.45,20.66v52.43h-39.35v-109.18Z"/><path class="cls-1" d="M737.72,38.05h208.9v35.79l-155.86.89-.99,22.93,155.86.16.99,33.92-153.46-1.97v61.58l-55.44,2.5V38.05Z"/><path class="cls-1" d="M974.26,40.64h39.35v28.48h-39.35v-28.48ZM974.26,82.18h39.35v109.18h-39.35v-109.18Z"/><path class="cls-1" d="M1042.51,83.23h36.64v17.79c5.48-7.26,11.02-12.46,16.63-15.58,5.61-3.12,12.44-4.68,20.5-4.68,10.89,0,19.42,3.44,25.57,10.33,6.15,6.89,9.23,17.53,9.23,31.92v69.4h-39.54v-60.04c0-6.85-1.19-11.7-3.58-14.55-2.39-2.84-5.74-4.27-10.06-4.27-4.77,0-8.64,1.92-11.6,5.76-2.97,3.84-4.45,10.73-4.45,20.66v52.43h-39.35v-109.18Z"/><path class="cls-1" d="M1278.52,44.85v150.72h-36.84v-16.14c-5.16,6.85-9.86,11.48-14.12,13.88-5.67,3.15-11.99,4.73-18.95,4.73-13.99,0-24.67-5.65-32.05-16.96-7.38-11.31-11.07-25.05-11.07-41.23,0-18.09,4.08-31.94,12.23-41.53,8.15-9.6,18.51-14.39,31.08-14.39,6.12,0,11.68,1.1,16.68,3.29,4.99,2.19,9.43,5.48,13.29,9.87v-52.23h39.74ZM1239.07,140.67c0-8.57-1.71-14.96-5.12-19.17-3.42-4.22-7.73-6.32-12.96-6.32-4.58,0-8.41,2.02-11.51,6.07-3.09,4.05-4.64,10.83-4.64,20.36,0,8.91,1.6,15.44,4.79,19.59,3.19,4.15,7.14,6.22,11.84,6.22,5.03,0,9.22-2.09,12.57-6.27,3.35-4.18,5.03-11,5.03-20.46Z"/><path class="cls-1" d="M1289.39,163.14l39.06-3.91c1.61,4.93,3.87,8.47,6.77,10.59,2.9,2.13,6.77,3.19,11.6,3.19,5.28,0,9.38-1.2,12.28-3.59,2.26-1.78,3.38-4,3.38-6.67,0-3.01-1.48-5.34-4.45-6.98-2.13-1.16-7.77-2.6-16.92-4.31-13.67-2.53-23.16-4.88-28.47-7.03-5.32-2.16-9.8-5.8-13.44-10.94-3.64-5.13-5.46-10.99-5.46-17.56,0-7.19,1.97-13.39,5.9-18.59,3.93-5.2,9.35-9.09,16.24-11.66,6.9-2.57,16.15-3.85,27.75-3.85,12.25,0,21.29.99,27.12,2.98,5.83,1.99,10.7,5.07,14.6,9.25,3.9,4.18,7.14,9.84,9.72,16.96l-37.32,3.91c-.97-3.5-2.58-6.07-4.83-7.71-3.09-2.19-6.83-3.29-11.22-3.29s-7.69.84-9.72,2.52c-2.03,1.68-3.05,3.71-3.05,6.11,0,2.67,1.29,4.69,3.87,6.06,2.58,1.37,8.19,2.6,16.82,3.7,13.08,1.57,22.82,3.77,29.2,6.57,6.38,2.81,11.26,6.81,14.65,12.02,3.38,5.2,5.08,10.92,5.08,17.15s-1.79,12.43-5.37,18.39c-3.58,5.96-9.22,10.7-16.92,14.22-7.7,3.53-18.19,5.29-31.47,5.29-18.76,0-32.12-2.84-40.08-8.53-7.96-5.69-13.07-13.78-15.32-24.26Z"/><path class="cls-1" d="M1448.57,159.12l92.07-23.16-92.07-21.06v-35.79l135.43,41.63-.78,35.23-134.65,37.9v-34.74Z"/></svg>