<?xml version="1.0" encoding="UTF-8"?><svg id="Layer_1" xmlns="http://www.w3.org/2000/svg" width="1920" height="1080" viewBox="0 0 1920 1080"><defs><style>.cls-1{fill:none;stroke:#cc0f1e;stroke-linecap:round;stroke-linejoin:round;stroke-width:3px;}</style></defs><path class="cls-1" d="M189.93,523.5s1.17-.73,1.19-.69c.13.23-7.12,9.02-6.97,9.28s11.68-7.19,11.87-6.85"/><path class="cls-1" d="M152.48,472.75c.61,1.06,49.59-30.55,50.42-29.11.56.96-34.53,24.78-33.96,25.77.63,1.09,40.94-24.98,41.52-23.97s-34.02,24.69-33.51,25.57c.64,1.11,40.58-24.72,41.14-23.75.49.85-39.06,26.51-38.46,27.56.51.89,37.94-23.13,38.47-22.21.64,1.1-39.95,27.81-39.28,28.98.63,1.1,46.65-28.24,47.21-27.26.74,1.28-40.42,28.07-39.88,29,.64,1.1,34.96-21.4,35.49-20.49.46.8-31.76,23.26-31.27,24.11s37.86-23.01,38.36-22.15c.4.7-25.49,20.19-25.16,20.77.37.65,27.46-16.84,27.89-16.1.36.63-19.6,16.59-19.29,17.14.19.32,17.64-10.76,17.89-10.33.07.13,1.49,5,1.55,5.11.04.08,6.31-3.78,6.37-3.68"/><path class="cls-1" d="M112.58,445.78c.2.35,15.86-9.58,16.04-9.26.63,1.09-34.61,24.51-34.01,25.55.74,1.29,49.99-30.56,50.73-29.29.83,1.43-54.27,35.5-53.41,36.98,1.08,1.87,64.88-39.26,65.66-37.91,1.14,1.97-68.23,42.92-67.04,44.99,1.31,2.27,74.75-46.03,75.99-43.87s-83.44,50.46-82.05,52.88,90.88-55.62,92.25-53.26c1.55,2.69-91.08,55.22-89.89,57.28,1.54,2.67,99.76-60.34,100.95-58.28,1.56,2.7-101.31,60.73-99.74,63.46,1.78,3.09,104.92-64.16,106.47-61.47,1.71,2.97-110.19,66-108.63,68.69,1.84,3.18,111.9-68.4,113.55-65.56,1.8,3.13-119.64,70.84-117.92,73.83,1.46,2.52,121.76-73.58,123.18-71.12,2.01,3.49-119.33,70.05-117.47,73.27.69,1.2,54.88-33.86,55.82-32.23.77,1.34-61.9,39.87-61.14,41.17s58.89-35.75,59.65-34.44-57.91,36.89-56.98,38.51c.7,1.21,47.08-28.79,47.78-27.59s-47.67,31.89-46.91,33.19,47.95-29,48.52-28.01c.8,1.39-44.41,29.63-43.82,30.66.68,1.18,41.39-25.57,42.11-24.31.54.94-43.36,29.37-42.84,30.28s47.43-28.87,48.07-27.76c.75,1.3-42.52,29.26-41.95,30.25.64,1.11,40.46-24.88,41.12-23.74.77,1.34-45.04,30.51-44.32,31.75.6,1.03,47.31-28.5,47.82-27.61.72,1.25-41.34,27.76-40.68,28.9.57.99,40.15-24.54,40.73-23.52.68,1.18-43.76,29.44-43.16,30.48s43.21-26.27,43.79-25.28c.64,1.1-40.49,27.71-39.99,28.58.65,1.13,46.27-28.01,46.83-27.04.67,1.17-40.98,28.05-40.28,29.27.64,1.12,43.65-26.73,44.31-25.59s-39.61,26.63-38.92,27.81c.52.9,39.52-24.25,40.14-23.17.55.96-35.81,25.26-35.34,26.07.73,1.27,39.52-24.04,40.05-23.12.57.98-36.38,25.34-35.72,26.47.85,1.47,51.49-31.64,52.32-30.21.67,1.16-50.59,33.14-49.8,34.49,1.5,2.59,85.61-52.63,87-50.23,1.22,2.12-80.51,50.19-79.42,52.07,1.48,2.56,87.44-53.36,88.69-51.2,1,1.73-81.58,50.48-80.38,52.57,1.41,2.44,92.56-56.09,93.71-54.1,1.36,2.35-90.43,54.87-88.93,57.47,1.33,2.3,92.78-55.98,93.83-54.17s-83.91,50.55-82.48,53.03c1.15,1.99,74.3-45.03,75.23-43.43,1.1,1.9-70.24,43.81-69.4,45.26.89,1.54,67.87-41.82,69.01-39.84.79,1.37-56.26,36.09-55.39,37.59s50.06-30.41,50.71-29.28c.79,1.36-44.01,29.17-43.33,30.35.51.88,35.06-21.33,35.54-20.52"/><path class="cls-1" d="M315.14,500.25c.52.91,35.59-21.73,36.1-20.84.48.83-27.01,20.33-26.65,20.95.46.79,25.16-15.53,25.59-14.78s-24.49,18.3-24.04,19.08c.48.83,28.36-17.54,28.86-16.66.38.66-21.58,17.14-21.27,17.68.42.72,28.52-17.53,28.98-16.73.39.67-26.63,20.07-26.14,20.91s25.22-15.62,25.68-14.83c.39.67-25.16,19.61-24.8,20.23.4.69,29.49-18.19,29.99-17.32.55.95-34.6,24.64-34.11,25.48s34.18-20.66,34.58-19.96c.44.77-33.72,23.69-33.15,24.69s39.16-23.63,39.6-22.86c.62,1.07-35.91,25.36-35.46,26.14.56.96,35.02-21.46,35.56-20.53.66,1.14-36.86,26.46-36.37,27.33s38.96-23.95,39.59-22.86c.86,1.5-48.25,32.59-47.59,33.73.54.94,45.16-27.83,45.92-26.51"/><path class="cls-1" d="M273.97,488.08c.23.4,15.15-9.27,15.38-8.88.36.63-26.57,19.8-26.2,20.44.66,1.14,40.4-24.85,41.06-23.7.78,1.35-47.41,32.21-46.79,33.29.95,1.64,55.29-33.86,56.13-32.41.9,1.56-60.43,39.01-59.47,40.67,1.19,2.06,74.01-44.58,74.81-43.19,1.01,1.75-76.95,47.48-75.6,49.82,1.13,1.96,84.56-51.66,85.79-49.53,1.11,1.92-80.83,49.49-79.75,51.36,1.02,1.77,80.36-49.23,81.59-47.1,1.48,2.56-87.66,53.28-86.39,55.48.61,1.06,52.66-32.03,53.36-30.81s-52.83,34.22-52.15,35.39c.52.89,45.22-27.76,45.94-26.52.63,1.09-40.1,27.4-39.6,28.28.59,1.02,30.07-18.82,30.7-17.73.47.82-38.1,26.43-37.52,27.43.47.82,40.66-24.87,41.26-23.82.52.9-32,23.85-31.6,24.55.53.92,32.04-19.74,32.57-18.81.59,1.03-35.01,24.52-34.58,25.27.56.97,31.43-19.32,31.94-18.44s-30.91,22.12-30.5,22.82c.37.64,31.05-19.01,31.52-18.2.43.74-31.66,22.27-31.1,23.23.5.87,31.67-19.5,32.2-18.59.37.64-20.72,17.29-20.4,17.84.35.61,26.61-16.17,26.96-15.56.44.76-29.78,21.63-29.39,22.3.36.62,28.7-17.52,29.11-16.81s-22.18,17.4-21.81,18.04c.4.69,28.05-17.21,28.49-16.45.31.54-21.98,17.1-21.6,17.77,1.34,2.33,82.26-50.79,83.69-48.32,1.16,2-83.86,51.07-82.42,53.57,1.28,2.22,87.99-53.59,89.2-51.5,1.39,2.4-80.8,49.59-79.69,51.51s75.7-46.61,76.96-44.43-69.98,44.17-68.87,46.09c.85,1.48,62.7-38.71,63.78-36.82,1,1.73-57.77,36.63-56.82,38.27.68,1.17,58.76-35.53,59.46-34.33s-50.43,33.13-49.67,34.45c.45.78,42.67-25.81,43.18-24.93"/><path class="cls-1" d="M442.1,570.32c.94,1.63,70.75-43.14,71.74-41.42.91,1.58-72.54,45.5-71.56,47.2,1.05,1.83,71.81-43.38,72.64-41.94,1.1,1.91-62.44,39.61-61.54,41.18.75,1.31,56.13-34.82,57.18-33.01.8,1.39-55.92,36.09-55.09,37.54s52.78-32.05,53.46-30.87c.74,1.28-43.83,29.66-43.13,30.87s42.25-26.26,43.06-24.86c.65,1.13-41.5,27.98-40.99,28.87.62,1.08,41.77-25.45,42.35-24.45.47.81-30.55,22.16-30,23.1.3.52,23.53-14.18,23.79-13.74"/><path class="cls-1" d="M451.08,505.99c.54.93,46.14-27.96,46.71-26.97.52.91-34.57,24.42-34.06,25.31.59,1.02,35.36-21.58,35.87-20.71.55.96-31.32,22.46-30.8,23.35.42.73,35.18-21.43,35.66-20.59.43.75-32.65,23.01-32.07,24.02.43.75,35.34-21.49,35.81-20.68.65,1.12-39.19,27.44-38.53,28.57.49.84,40.09-24.06,40.49-23.37.59,1.02-38.21,26.7-37.72,27.55.56.97,37.3-22.66,37.79-21.82.64,1.1-37.59,26.22-37.13,27.03.52.9,34.32-21.14,34.89-20.14s-30.92,22.38-30.43,23.24,38.41-23.48,38.97-22.5-41.11,28.32-40.5,29.36c.5.86,39.92-24.41,40.51-23.39.71,1.23-42.22,28.43-41.53,29.61.5.86,38.3-23.47,38.88-22.45"/><path class="cls-1" d="M446.58,483.05c.17.29,10.47-6.46,10.65-6.15"/><path class="cls-1" d="M396.85,479.9s9.32-5.44,9.35-5.4c.14.24-7.56,10.27-7.39,10.57s17.72-10.63,17.89-10.33c.24.41-12.78,12.35-12.59,12.68.31.54,16.54-10.39,16.91-9.76.32.56-17.88,15.78-17.56,16.34.48.82,31.85-19.38,32.28-18.64.58,1.01-37.31,25.9-36.65,27.04.5.86,34.4-21.04,34.91-20.15s-36.47,25.67-35.98,26.52c.59,1.02,37.97-22.95,38.42-22.18.55.96-38.41,26.12-37.85,27.08.64,1.11,40.58-24.68,41.12-23.74s-37.96,26.96-37.42,27.89c1.02,1.77,69.78-42.66,70.81-40.88,1.18,2.05-70.4,43.72-69.36,45.53,1.13,1.96,80.14-48.85,81.26-46.91s-89.28,54.46-88.09,56.52c1.54,2.67,94.01-57.43,95.38-55.07,1.16,2.02-93.18,57.1-91.89,59.32.58,1.01,45.62-27.89,46.29-26.73.88,1.52-49.22,32.34-48.53,33.54.5.87,46.61-28.21,47.18-27.24.66,1.14-45.7,30.26-44.92,31.59.67,1.17,36.32-22.27,36.89-21.3.61,1.05-40.78,27.39-40.13,28.53.52.9,43.54-26.39,44.08-25.45.68,1.18-38.09,26.82-37.5,27.85.51.88,39.72-24.25,40.29-23.26.54.93-41.4,28.29-40.75,29.42.49.85,35.61-22.09,36.27-20.94s-42.86,29.06-42.12,30.33c.65,1.12,43.44-26.47,44.04-25.43.53.91-42.83,29.51-42.15,30.68.56.96,48.83-30.04,49.63-28.65.7,1.22-46.17,31.42-45.56,32.48.78,1.35,53.65-32.77,54.43-31.42.95,1.64-58.94,37.76-57.99,39.39,1.87,3.24,115.19-69.82,116.62-67.33,1.83,3.17-122.22,71.1-120.13,74.71.47.82,46.72-28.38,47.33-27.33.65,1.13-44.29,30.05-43.7,31.08s39.22-24.07,39.83-23c.71,1.23-39.42,27.73-38.85,28.71s36.82-22.8,37.49-21.64c.52.89-35.49,25.13-34.93,26.1.64,1.11,38.92-24.02,39.59-22.86s-40.12,26.93-39.4,28.16c.59,1.01,39.36-23.84,39.84-23,.59,1.02-37.11,26.01-36.44,27.18.52.89,34.79-21.23,35.29-20.37.36.62-25.08,19.37-24.68,20.05.37.64,23.55-14.5,23.94-13.82.27.46-15.97,13.97-15.74,14.37s14.67-8.95,14.88-8.59c.12.22-3.18,7.67-3.08,7.85.04.07,2.77-1.69,2.81-1.62"/><path class="cls-1" d="M593.4,494.59c.54.94,32.12-19.78,32.65-18.85.34.58-23.5,18.89-23.09,19.59.45.79,21.98-13.77,22.45-12.96.27.47-17.38,14.57-17.06,15.12.39.67,23.13-14.36,23.56-13.6.31.53-20,16.13-19.65,16.74.39.68,25.11-15.44,25.52-14.74.46.79-25.43,19.51-25.02,20.23s27.31-16.83,27.77-16.03c.39.67-28.72,21.79-28.3,22.52.52.9,32.41-19.67,32.83-18.95.53.92-30.96,22.09-30.52,22.85.51.88,30.49-18.89,31.05-17.92"/><path class="cls-1" d="M575.17,537.26c.56.97,31.94-19.73,32.5-18.76.4.69-24.32,19.04-23.88,19.8.72,1.24,61.17-37.17,61.98-35.78.67,1.16-49.11,32.67-48.23,34.19.77,1.34,48.43-29.63,49.15-28.38.46.79-34.51,25.19-34.05,25.99.51.88,38.34-23.82,39.07-22.56.53.91-30.6,22.63-30.09,23.52.44.77,27.01-16.9,27.58-15.92.29.5-21.74,17.37-21.41,17.95.41.71,25.2-15.25,25.5-14.72.21.36-14.77,13.32-14.52,13.75.22.39,16.4-9.96,16.62-9.59.12.21-7.15,9.54-7.02,9.76.08.14,6.57-4.03,6.67-3.85"/><path class="cls-1" d="M555.6,483.62c.18.31,14.65-8.88,14.83-8.56.51.89-28.25,20.87-27.73,21.78.55.95,38.67-23.8,39.31-22.7s-47.72,32.35-47.09,33.45c.89,1.54,62.24-37.51,62.92-36.33,1.15,1.99-66.83,42.36-65.82,44.1,1.05,1.83,70.85-43.03,71.77-41.44,1.05,1.82-66.56,41.27-65.47,43.15.97,1.68,74.4-45.07,75.32-43.48,1.44,2.49-81.8,50.69-80.63,52.7,1.4,2.42,83.74-51.68,85.18-49.18,1.18,2.04-84.54,52.09-83.22,54.38.54.93,45.38-27.74,46.04-26.58.62,1.07-46.95,30.92-46.24,32.14.65,1.13,41.06-25.16,41.69-24.07.48.82-38.24,26.08-37.57,27.25.72,1.25,41.6-25.44,42.21-24.37.73,1.27-42.34,28.08-41.59,29.37s46.47-28.74,47.3-27.31c.74,1.28-45.39,30.61-44.66,31.87.77,1.34,57.84-35.1,58.58-33.82s-62.95,40.52-62.01,42.14c.45.78,39.78-24.09,40.27-23.25.39.68-30.92,22.12-30.44,22.96s26.35-16.32,26.83-15.49c.42.73-31.13,22.6-30.63,23.46.4.69,35.2-21.23,35.6-20.55.59,1.01-33.56,24.12-33,25.09.47.82,34.82-21.23,35.31-20.39.4.69-25.39,18.93-24.93,19.73.39.67,29.22-17.92,29.68-17.13.49.84-30.99,22.14-30.56,22.89.49.85,28.49-17.52,28.95-16.72.27.46-17.41,15.06-17.18,15.46.77,1.33,46.54-28.22,47.13-27.21s-40.77,28.29-40.18,29.32c.7,1.21,46.18-28.12,46.81-27.02.81,1.4-47.2,30.77-46.47,32.03s58.05-35.36,58.85-33.97c.87,1.5-48,32.64-47.4,33.68.7,1.21,50.75-30.84,51.42-29.69.61,1.06-41.59,27.88-40.98,28.94.82,1.42,52.76-31.95,53.41-30.83.73,1.26-42.74,28.58-42.01,29.84.61,1.06,35.39-22.1,36.11-20.85.43.75-25.93,20.28-25.56,20.92.22.37,15.47-9.39,15.67-9.05"/><path class="cls-1" d="M726.63,505.91c.7,1.21,48.63-29.77,49.36-28.5s-40.63,27.24-40.01,28.32c.55.95,38.45-23.53,39.03-22.53.53.91-37.15,25.56-36.67,26.39s39.98-24.26,40.49-23.38c.42.73-33.67,23.62-33.2,24.43.53.92,31.82-19.56,32.33-18.67.57.99-35.2,24.63-34.64,25.6.65,1.13,37.92-22.98,38.39-22.16.66,1.15-37.76,26.54-37.22,27.49.64,1.1,43.04-25.98,43.53-25.13.77,1.33-45.1,29.73-44.3,31.13.61,1.06,44.74-27.13,45.3-26.15.82,1.42-45.78,30.54-44.99,31.9.55.96,40.23-24.69,40.86-23.59.48.83-36.46,26.03-35.9,26.99s34.52-21.48,35.19-20.32c.59,1.01-36.1,24.79-35.52,25.79.64,1.1,36.13-22.3,36.76-21.22.78,1.36-44.95,30.29-44.15,31.68.6,1.03,41.88-25.36,42.39-24.47.69,1.19-40.87,27.36-40.22,28.49s39.23-23.73,39.69-22.92c.66,1.14-36.54,25.37-35.94,26.4.48.82,37.6-23.07,38.19-22.05s-42.57,29.31-41.9,30.47c.52.9,45.09-27.37,45.67-26.37s-42.4,28.59-41.88,29.48c.49.85,37.95-23.15,38.49-22.22.73,1.26-40.63,27.5-40.09,28.43.6,1.03,36.46-22.52,37.1-21.42.36.62-25.61,20.28-25.28,20.87.38.66,27.21-16.58,27.59-15.93s-20.08,16.88-19.73,17.48c.32.56,15.42-9.55,15.7-9.07.16.28-6.92,8.89-6.76,9.16.17.29,11.06-6.75,11.22-6.48"/><path class="cls-1" d="M724.38,481.76c.22.38,10.16-6.22,10.32-5.96"/><path class="cls-1" d="M675.59,476.81s1.48-.9,1.5-.87c.12.21-4.32,8.08-4.19,8.3.14.24,15.97-9.6,16.14-9.32.2.35-13.59,13.49-13.35,13.92.33.57,18.06-11.25,18.42-10.63.26.46-15,14.12-14.79,14.49.52.9,24.56-15.15,24.98-14.42.45.78-28.49,21.61-28,22.47.6,1.04,36.8-22.48,37.33-21.55.66,1.14-39.92,27.64-39.32,28.67s39.51-24.21,40.11-23.16-41.17,28.75-40.58,29.77c.47.81,38.88-23.55,39.36-22.72.58,1.01-40.55,27.34-39.91,28.44,1.1,1.9,80.03-48.79,81.15-46.85,1.32,2.29-83.97,51.31-82.7,53.51s85.67-52.49,86.99-50.22c1.54,2.67-88.25,53.61-87.1,55.6,1.45,2.52,97.15-59.73,98.73-57,1.16,2.01-92.62,56.66-91.27,59,.68,1.18,38.6-23.86,39.28-22.68.56.97-39.55,27.01-39.04,27.91.7,1.21,36.83-22.37,37.31-21.54.69,1.19-41.67,28.77-41.17,29.66.68,1.19,41.46-25.17,41.99-24.24.78,1.34-45.39,30.42-44.68,31.66.65,1.13,44.01-26.94,44.67-25.79.72,1.25-45.88,30.51-45.32,31.48.49.84,39.94-24.15,40.41-23.33.66,1.14-38.55,26.29-37.96,27.3s36.24-22.41,36.89-21.3c.53.91-34.63,23.92-34.04,24.93.5.86,34.06-20.79,34.55-19.95.56.97-37.86,25.84-37.29,26.83.65,1.13,43.94-26.56,44.45-25.67.7,1.22-40.39,27.98-39.89,28.84.59,1.02,38.99-23.55,39.44-22.77.47.82-35.31,24.52-34.68,25.62.46.8,31.9-19.21,32.24-18.61.27.48-20.95,17.41-20.61,18,.29.51,17.36-10.68,17.64-10.19.16.27-8.19,9.65-8.04,9.9s7.49-4.63,7.63-4.4"/><path class="cls-1" d="M872.88,520.47c.65,1.12,51.55-31.44,52.27-30.18s-41.38,27.47-40.65,28.73c.77,1.34,49.1-30.06,49.84-28.78.55.95-43.92,29-43.23,30.21.78,1.35,53.15-32.2,53.8-31.06.73,1.26-45.35,30.32-44.74,31.38.67,1.15,48.74-29.84,49.48-28.56.61,1.06-38.66,26.55-38.17,27.39.74,1.29,50.09-30.61,50.82-29.34.67,1.17-46.96,31.16-46.19,32.49.82,1.41,57.15-34.51,57.8-33.37s-41.28,27.89-40.65,28.98c.75,1.3,50.92-31.48,51.82-29.92.71,1.24-46.72,30.94-46.08,32.04.78,1.35,53.41-32.72,54.23-31.31.7,1.21-47.81,31.79-46.98,33.23.69,1.19,57.03-34.69,57.79-33.37.59,1.03-45.02,30.29-44.27,31.59.66,1.14,50.64-31.04,51.42-29.69.68,1.17-47.12,31.59-46.49,32.67.82,1.42,61.61-37.07,62.26-35.95.73,1.27-53.87,34.8-53.17,36,.79,1.38,50.16-30.69,50.91-29.39.68,1.17-39.82,27.05-39.2,28.14.46.8,42-25.6,42.59-24.59.4.69-32.04,22.77-31.58,23.57s31.83-19.38,32.26-18.63c.3.53-21.82,17.09-21.49,17.67s20.6-12.54,20.88-12.06c.26.45-12.27,12.8-12.04,13.19.14.23,6.31-4.03,6.47-3.74.06.1,2.44,4.11,2.5,4.22.02.04,1.83-1.12,1.86-1.07"/><path class="cls-1" d="M874.71,465.73c.79,1.37,59.28-36.27,60.16-34.74.73,1.27-56.99,37.45-56.29,38.67.98,1.7,62.65-38.47,63.64-36.74s-53.33,35.01-52.42,36.59,60.61-37.26,61.59-35.56c.72,1.24-49.63,32.16-48.84,33.52.97,1.68,62.41-38.28,63.38-36.59.78,1.36-51.54,33.93-50.88,35.08.81,1.39,51.94-32.02,52.82-30.5.7,1.22-51.14,32.82-50.3,34.27.91,1.57,62.15-38.22,63.16-36.47.8,1.39-46.64,30.52-45.89,31.83s50.92-31.23,51.71-29.86-45.3,30.81-44.57,32.07,60.02-36.62,60.87-35.14c.71,1.22-53.6,34.63-52.66,36.26.78,1.36,56.4-34.79,57.37-33.12.64,1.1-44.97,30.15-44.41,31.12.72,1.24,60.76-37.16,61.66-35.6.65,1.12-54.19,34.96-53.23,36.62.69,1.2,58.57-35.88,59.46-34.33.79,1.37-51.88,33.22-50.98,34.78.64,1.11,46.14-27.97,46.71-26.97.51.88-37.95,26.63-37.3,27.74.4.7,35.33-21.78,35.93-20.74.42.73-23.85,18.65-23.49,19.27.34.59,26.16-15.99,26.54-15.33.22.37-13.59,12.6-13.37,12.99.21.36,15.98-9.68,16.18-9.34.22.38-10.45,11.26-10.24,11.62.08.15,9.7-5.77,9.77-5.64"/><path class="cls-1" d="M815.23,434.36s1.62-.99,1.64-.95c.08.14-.93,6.3-.86,6.43.14.25,12.87-7.79,13.02-7.52.23.4-10.57,11.96-10.4,12.25.37.64,15.82-9.89,16.15-9.32.26.45-17.82,15.97-17.58,16.4.47.81,34.82-21.09,35.25-20.35.5.87-32.88,23.99-32.42,24.78.57.98,40.27-24.84,40.96-23.65s-49.8,32.62-48.96,34.06,55.55-34.05,56.4-32.56c.64,1.11-49.16,32.72-48.3,34.19,1.09,1.88,58.43-36.05,59.43-34.31,1.13,1.96-64.57,41.56-63.8,42.9,1.1,1.91,76.54-46.54,77.56-44.78,1.4,2.42-79.93,48.52-78.53,50.95,1.17,2.02,84.71-51.37,85.77-49.52,1.23,2.13-83.45,51.57-82.29,53.58s92.76-57.09,94.29-54.44c1.45,2.51-94.56,57.05-93.06,59.66,1.67,2.89,96.7-59.44,98.27-56.73,1.68,2.91-101.69,60.45-100.1,63.2.93,1.6,51.99-31.93,52.82-30.5.9,1.56-59.09,37.49-58.07,39.27.91,1.58,59.77-36.17,60.49-34.92.89,1.54-58.34,37.86-57.52,39.28.66,1.14,53.29-32.79,54.16-31.27s-57.59,36.62-56.76,38.05,53.63-32.37,54.23-31.31c.87,1.51-52.84,34.75-51.93,36.32.67,1.16,60.92-37.22,61.8-35.68.98,1.69-61.71,39.5-60.87,40.96s63.52-39.27,64.65-37.32c.99,1.71-63.1,40.1-62.06,41.91.93,1.61,74.58-45.19,75.5-43.59,1.28,2.23-75.06,47.25-74.08,48.96,1.53,2.66,81.21-49.39,82.29-47.51,1.14,1.98-91.86,56.19-90.57,58.42s98.54-59.92,99.85-57.65c1.18,2.04-97.95,59.08-96.31,61.91.85,1.47,58.54-35.5,59.28-34.22,1.03,1.79-61.52,38.95-60.52,40.69.92,1.59,60.85-37.03,61.67-35.6.88,1.53-62.53,39.52-61.59,41.15s56.55-34.38,57.3-33.08c.9,1.56-59.3,37.8-58.4,39.37.76,1.32,57.65-34.78,58.3-33.66.86,1.48-58.66,37.86-57.69,39.54.84,1.46,60.07-36.43,60.83-35.12.84,1.45-53.33,34.87-52.41,36.47.66,1.15,47.45-29.25,48.25-27.86.71,1.24-44.85,29.52-44.11,30.79.68,1.17,44.44-27.32,45.16-26.07.55.96-35.5,24.56-34.89,25.62.38.65,31.13-18.88,31.52-18.2.25.43-16.83,15.14-16.52,15.67.24.42,20.38-12.55,20.72-11.96.19.32-9.81,11.43-9.64,11.72.12.21,9.07-5.54,9.2-5.31"/><path class="cls-1" d="M1054.95,475.81s1.48-.91,1.5-.87c.13.23-5.62,8.91-5.48,9.14.17.29,13.8-8.32,13.95-8.05.2.35-12.23,12.61-12.01,13,.28.48,22.35-13.67,22.68-13.1.43.75-25.22,19.32-24.83,19.99.42.73,34.14-20.85,34.63-20,.54.93-32.73,23.84-32.17,24.8.51.89,41.15-25.25,41.79-24.13.56.97-37.98,26.09-37.32,27.23.58,1.01,33.38-20.57,33.94-19.59.65,1.13-41.35,27.96-40.75,28.99.47.82,39.48-24.29,40.13-23.17s-37.83,26.68-37.32,27.57c.58,1,43.55-26.71,44.23-25.53s-39.44,26.84-38.76,28.01,37.82-23.27,38.44-22.19c.75,1.31-45.39,30.98-44.8,31.99s44.56-26.93,45.08-26.03c.68,1.18-41.84,28.47-41.19,29.61.49.85,34.94-21.75,35.62-20.57.47.82-37.43,26.48-36.86,27.46.54.93,34.52-21.15,35.05-20.24s-36.26,24.97-35.69,25.96c.66,1.15,40.38-24.64,40.95-23.64.5.86-40.59,27.31-39.9,28.51.59,1.01,35.71-22.12,36.36-20.99s-35.92,24.95-35.29,26.04c.49.85,39.77-24.14,40.28-23.26.56.97-45.19,30.62-44.6,31.65s38.98-23.82,39.55-22.83c.54.93-35.33,24.55-34.82,25.43.56.96,40.23-24.52,40.79-23.55.7,1.21-39.73,27.97-39.23,28.84s36.86-22.42,37.35-21.57c.65,1.13-40.08,27.4-39.44,28.51.57.98,36.68-22.28,37.16-21.45s-28.75,21.27-28.36,21.94c.41.7,29.55-17.85,29.89-17.26.37.64-22.18,17.35-21.85,17.92.27.46,23.94-14.38,24.18-13.96.21.36-11.8,12.45-11.61,12.77.09.16,12.32-7.34,12.42-7.17"/><path class="cls-1" d="M1052.06,438.02s8.57-4.99,8.59-4.96c.16.28-6.58,9.18-6.43,9.44.18.31,11.17-6.86,11.35-6.55.13.23-7.12,9.71-6.95,10,.29.5,13.91-8.69,14.2-8.2.34.59-21.61,17-21.22,17.67.52.9,31.77-19.2,32.14-18.56.48.82-29.9,21.48-29.38,22.39.49.85,36.6-22.71,37.29-21.53.44.76-30.14,22.38-29.59,23.33.51.89,28.02-17.24,28.48-16.44s-26.4,19.55-25.97,20.28,28.64-17.3,28.97-16.73-16.91,14.84-16.62,15.35c.19.33,21.2-12.84,21.46-12.39s-14.54,13.12-14.26,13.61c.11.2,8.17-4.9,8.25-4.76"/><path class="cls-1" d="M1178.82,503.66c.67,1.16,38.01-23.13,38.53-22.24s-30.4,22.17-29.94,22.97c.64,1.1,33.29-20.55,33.87-19.55s-29.71,22.21-29.21,23.08,33.22-20.61,33.84-19.54c.48.83-31.42,22.79-30.96,23.57.57.99,36.69-22.61,37.31-21.54.59,1.01-40.25,27.44-39.72,28.37s37.68-22.84,38.15-22.03-35.38,25.41-34.85,26.33c.56.98,36.08-22.18,36.66-21.17.66,1.15-39.19,26.74-38.5,27.93.64,1.1,38.54-23.5,39.08-22.56s-39.38,26.53-38.75,27.63c.56.97,39.25-23.92,39.8-22.98.66,1.15-44.13,29.03-43.41,30.28.53.92,37.99-23.14,38.51-22.24s-37.09,26.48-36.61,27.31c.59,1.03,41.73-25.37,42.28-24.41.77,1.33-43.25,29.46-42.6,30.6.46.81,40.38-24.49,40.89-23.61.63,1.09-36.15,25.23-35.5,26.36.53.92,36.13-22.08,36.66-21.16.56.97-38.97,26.44-38.38,27.46s34.01-20.99,34.6-19.98c.51.89-34.35,24.43-33.89,25.23.53.93,35.58-22.02,36.22-20.91.76,1.31-42,28.59-41.48,29.48s40.24-24.38,40.74-23.52c.61,1.06-37.32,26.13-36.81,27.01.44.76,39.47-23.84,39.93-23.05.51.88-29.29,21.74-28.87,22.48s27.44-16.77,27.84-16.08c.27.46-16.42,14.69-16.14,15.18s16.53-10.02,16.74-9.66c.17.3-10.89,11.96-10.67,12.35.09.15,10.22-6.16,10.33-5.97"/><path class="cls-1" d="M1167.91,484.51c.21.36,16.63-9.98,16.8-9.7"/><path class="cls-1" d="M1123.89,476.81s1.48-.9,1.5-.87c.09.15-1.66,7.07-1.56,7.24.18.3,11.8-7.22,11.98-6.91.31.53-16.17,14.84-15.94,15.25.35.6,29.49-17.72,29.79-17.2.42.72-21.9,17.2-21.6,17.71.54.94,28.61-17.68,29.11-16.81.45.78-32.33,23.72-31.86,24.54s36.31-22.19,36.84-21.27c.66,1.14-37.07,26.25-36.49,27.25.53.91,32.44-19.83,32.92-19,.51.88-34.93,24.39-34.45,25.23s32.49-19.81,32.94-19.02c.54.94-33.99,24.33-33.48,25.21,1.09,1.88,77.71-47,78.63-45.4.98,1.7-81.45,49.78-80.1,52.12,1.22,2.11,87.88-54.13,89.35-51.59,1.33,2.3-88.64,54.15-87.24,56.57s85.6-52.71,87.03-50.25c1.16,2.02-90.9,56.09-89.81,57.97.54.93,45.85-28.04,46.53-26.87.64,1.1-43.71,29.7-43.06,30.83.57.99,42.27-25.65,42.81-24.71.57.99-44.23,29.33-43.47,30.64.56.98,37.86-23.08,38.39-22.16.67,1.15-37.16,25.55-36.66,26.4.67,1.16,34.72-21.19,35.22-20.33s-36.71,25.69-36.26,26.48c.52.9,41.99-25.78,42.65-24.63.71,1.22-46.1,30.85-45.4,32.06.66,1.15,41.29-24.96,41.77-24.12s-39.72,27.76-39.23,28.61c.6,1.05,35.84-21.97,36.4-21.01.65,1.12-35.45,25.47-34.91,26.4.61,1.06,37.43-23.02,38.04-21.96.45.78-35.59,25.1-35.14,25.87.58,1.01,38.12-23,38.55-22.26.5.86-30.83,22.14-30.41,22.87s28.17-16.99,28.48-16.44c.4.69-20.95,17.48-20.66,17.98.21.36,17.24-10.54,17.49-10.1.16.27-7.34,9.96-7.15,10.28.07.13,7.94-4.77,8.02-4.63"/><path class="cls-1" d="M1323.75,568.76c.53.91,39.49-24.23,40.11-23.16s-35.89,25.65-35.28,26.72c.51.88,35.33-21.81,35.95-20.75.54.93-40.4,27.43-39.73,28.6.45.77,35.55-21.8,36.1-20.84.42.73-29.87,21.79-29.37,22.66.42.73,32.58-20.06,33.12-19.12.34.59-25.71,20.4-25.38,20.97s24.34-14.81,24.67-14.24c.21.36-9.35,10.57-9.2,10.84.18.32,8.37-5.24,8.55-4.93.07.12,1.12,4.78,1.19,4.9.02.04.39-.27.41-.23"/><path class="cls-1" d="M1304.25,504.78c.91,1.57,54.7-33.24,55.42-32,.63,1.08-52.05,34.05-51.13,35.63.8,1.38,56.35-34.11,57.04-32.93s-54.58,34.87-53.62,36.54c.61,1.05,46.1-28.04,46.71-26.97.48.83-38.8,26.72-38.29,27.59.74,1.29,42.98-26.19,43.57-25.16.81,1.4-44.92,30.14-44.35,31.12.67,1.15,40.27-24.86,40.97-23.65.63,1.09-35.59,25.53-35.12,26.36.66,1.14,36.14-22.22,36.73-21.2.47.82-36.53,25.63-36.06,26.46.57.99,32.02-19.87,32.62-18.83.65,1.13-39.77,26.85-39.2,27.83.6,1.03,44.71-27.08,45.26-26.13.59,1.02-40.11,27.38-39.4,28.6.66,1.14,40.23-24.44,40.75-23.53.76,1.32-45.1,29.79-44.38,31.03s37.67-22.95,38.19-22.05"/><path class="cls-1" d="M1262.73,487.42c.21.36,16.65-10,16.82-9.71.35.61-23.29,18.6-22.98,19.13.62,1.07,30.23-18.77,30.8-17.78.61,1.06-33.47,23.78-33.02,24.56.66,1.15,47.71-29.45,48.54-28.02s-50.82,32.82-50.06,34.15c.84,1.45,53.64-33.05,54.54-31.49,1.03,1.78-59.1,38.23-58.34,39.55.98,1.7,65.98-39.84,66.74-38.53,1.07,1.86-65.02,41.06-64.16,42.54,1.11,1.92,62.99-38.49,63.91-36.9s-64.63,40.74-63.75,42.26c.93,1.61,66.51-41.29,67.76-39.12s-75.76,47.03-74.55,49.13c1.39,2.4,118.79-71.98,120.26-69.43,1.57,2.71-122.83,71.68-120.74,75.31.69,1.19,43.35-26.45,43.97-25.39.66,1.15-36.34,25.47-35.69,26.6.61,1.06,38.46-23.36,38.96-22.49.68,1.19-37.21,26.67-36.74,27.49.57.99,33.6-20.68,34.16-19.72.62,1.08-37.66,25.63-36.99,26.8.45.78,35.54-21.78,36.09-20.84s-34.68,24.42-34.06,25.49c.46.8,32.41-19.99,32.97-19.03.43.74-31.4,22.92-30.92,23.74.5.87,30.46-18.87,31.02-17.91.33.57-25.55,19.35-25.11,20.12.57.98,28.89-17.86,29.4-16.97s-31.66,23.01-31.23,23.76c.48.83,31.93-19.52,32.4-18.7.32.56-25.23,19.37-24.8,20.11.52.89,32.91-20.33,33.49-19.33.43.74-29.45,21.27-28.97,22.12,1.36,2.35,89.02-53.96,90.13-52.04,1.38,2.39-89.19,53.89-87.89,56.15s85.37-51.65,86.39-49.88c1.25,2.16-80.99,50.12-79.75,52.28,1.36,2.35,77.35-47.3,78.49-45.32,1.04,1.81-71.67,45.04-70.57,46.93,1.19,2.06,76.31-45.91,77.11-44.52"/><path class="cls-1" d="M1322.16,440.39s1.48-.9,1.5-.87c.14.24-5.67,8.63-5.56,8.82.15.25,12.06-7.29,12.2-7.04.19.34-8.76,10.1-8.6,10.38.3.53,21.54-13.17,21.86-12.62s-18.11,15.82-17.76,16.43c.4.69,27.75-16.94,28.15-16.25.55.95-30.9,23.06-30.47,23.82.6,1.04,38.49-23.42,39.01-22.52.63,1.09-37.79,26.66-37.26,27.57.65,1.12,34.24-20.92,34.74-20.06.57.99-34.78,24.14-34.26,25.05.69,1.19,37.5-22.92,38.05-21.97.58,1.01-46.03,31.06-45.45,32.06s46.88-28.19,47.36-27.35c.85,1.48-48.12,31.15-47.26,32.64.69,1.2,45.21-27.68,45.89-26.5"/><path class="cls-1" d="M1373.43,552.59s1.57-.96,1.59-.92c.07.12,1.04,5.19,1.1,5.29.2.35,13.51-8.16,13.67-7.89s-9.5,10.83-9.31,11.17c.27.47,19.56-12,19.86-11.47.41.7-23.02,18.4-22.71,18.93.47.82,33.38-20.32,33.84-19.54.57,1-30.98,22.87-30.59,23.55s32.22-19.76,32.72-18.89c.46.79-25.35,19.26-24.93,19.99s24.62-15.39,25.13-14.51c.37.64-19.4,16.83-19.11,17.33.49.85,25.68-15.73,26.07-15.05.43.74-26.3,19.86-25.87,20.6.53.91,38.11-22.92,38.51-22.23.46.79-25.23,19.45-24.89,20.04.9,1.56,76.43-46.28,77.36-44.66,1.01,1.76-79.06,47.77-77.7,50.13,1.18,2.04,72.41-44.23,73.46-42.41.88,1.53-65.3,41.22-64.27,43.01.79,1.37,63.64-38.64,64.46-37.22.89,1.54-53.67,34.91-52.92,36.21.62,1.08,56.59-34.14,57.22-33.04.58,1.01-45.78,30.51-45.2,31.51s37.89-23.39,38.54-22.25c.33.58-24.15,19.38-23.8,19.98.26.46,16.7-10.08,16.89-9.75"/><path class="cls-1" d="M1420.37,496.32c.45.78,37.2-22.66,37.71-21.77.58,1-32.04,23.1-31.58,23.91.36.63,36.54-22.12,36.98-21.35.34.59-26.78,20.06-26.3,20.9.37.64,26.28-15.96,26.62-15.37.4.69-25.15,19.2-24.76,19.89.37.64,28.97-17.83,29.45-17s-25.88,20.38-25.53,20.99,25.14-15.64,25.63-14.8c.22.38-10.43,11.7-10.22,12.06.26.45,21.22-12.94,21.52-12.42.14.25-8.03,10.38-7.87,10.66.13.22,7.1-4.4,7.23-4.17"/><path class="cls-1" d="M1390.57,483.68c.19.32,9.18-5.79,9.39-5.42.31.54-21.33,16.97-20.99,17.56.49.85,31.21-18.98,31.63-18.26.64,1.1-35.53,25.09-35.08,25.89.67,1.16,45.78-28.2,46.55-26.87.62,1.07-45.7,29.91-44.9,31.29.94,1.63,55.41-33.74,56.17-32.43.94,1.63-55.91,36.04-55.18,37.3,1.11,1.92,65.26-39.52,66.06-38.14,1.04,1.79-64.51,40.42-63.48,42.22.97,1.68,72.09-44.05,73.14-42.23s-70.81,44.31-69.73,46.19c.42.73,32.13-19.4,32.5-18.76.52.9-27.36,21.14-26.95,21.84.52.89,21.68-13.7,22.19-12.81.41.71-26.68,20.85-26.29,21.51.42.73,38.86-23.68,39.4-22.75s-34.15,23.8-33.62,24.71c.59,1.02,39.3-24.04,39.89-23.03.44.76-27.59,21.06-27.21,21.72.51.88,32.69-20.27,33.29-19.22.39.68-26.83,20.14-26.35,20.97s31.55-19.31,32.03-18.49c.55.96-31.21,22.59-30.74,23.4.54.93,41.09-25.08,41.68-24.06s-35.12,24.98-34.63,25.82c.54.94,37.71-23.01,38.25-22.08.39.67-26.38,20.56-26.02,21.18.42.73,33.44-20.4,33.91-19.58.56.97-31.1,22.26-30.59,23.13.47.82,32.26-19.82,32.78-18.92.36.63-28.22,20.83-27.81,21.55.48.83,38.69-23.31,39.11-22.58.65,1.12-36.71,26.36-36.21,27.23s34.41-20.82,34.83-20.11c.59,1.03-35.19,24.98-34.63,25.96.44.77,37.6-22.97,38.15-22.03"/><path class="cls-1" d="M1534.01,548.89c.03.06,2.5-1.54,2.54-1.47.11.19-5.91,8.88-5.75,9.15.3.52,25.01-15.09,25.29-14.6.45.78-25.17,19.5-24.8,20.14.54.93,39.5-24.04,40.03-23.11.63,1.1-36.68,25.5-36.21,26.31.65,1.13,47.19-28.71,47.82-27.61.57.99-46.7,31.01-45.93,32.34,1.09,1.89,65-39.41,65.81-38,1.16,2.01-73.5,45.26-72.22,47.46s85.59-52.3,86.84-50.14c1.35,2.34-76.71,47.04-75.65,48.87,1.72,2.98,118.55-72.71,120.39-69.51,1.26,2.19-103.44,62.19-101.86,64.94s108.13-66.46,109.88-63.44c1.44,2.5-88.91,54.67-87.63,56.88,1.42,2.46,83.58-51.23,84.87-49,.96,1.66-68.01,42.11-66.88,44.07,1.21,2.09,72.7-44.09,73.62-42.51.76,1.32-63.68,39.86-62.76,41.45.96,1.67,58.7-35.91,59.58-34.4.69,1.2-43.23,29.02-42.53,30.24.6,1.04,42.28-25.89,42.92-24.78.29.51-22.12,17.35-21.8,17.91s22.92-14.01,23.26-13.43c.19.33-8.82,10.55-8.68,10.79.03.06,3.88-2.33,3.92-2.26"/><path class="cls-1" d="M1533.14,473.42s5.97-3.49,5.99-3.46c.12.2-5.15,8.33-5.05,8.5.13.22,10.79-6.52,10.92-6.3.18.31-8.14,10.06-7.97,10.35.22.38,9.28-5.77,9.46-5.46.21.36-10.71,12.04-10.51,12.39.34.6,23.45-14.25,23.76-13.72.42.73-21.97,17.93-21.57,18.63.43.75,19.8-12.27,20.16-11.64.47.81-28.48,21.53-27.95,22.46s34.74-21.16,35.22-20.34c.38.65-25.71,20.06-25.3,20.78.49.85,39.13-23.63,39.58-22.85.48.84-34.33,24.23-33.7,25.32.44.77,38.76-23.71,39.34-22.71.46.8-28.98,21.72-28.53,22.51.6,1.04,33.32-20.64,33.93-19.59.55.95-34.79,25.08-34.33,25.87.6,1.04,41.41-25.04,41.9-24.19s-29.73,21.5-29.33,22.2c.52.91,35.12-21.44,35.63-20.57.56.98-30.97,22.53-30.5,23.34s37.9-23.01,38.39-22.17-31.02,22.82-30.54,23.66c.54.93,34.05-20.64,34.48-19.91.5.86-31.61,22.63-31.22,23.32.59,1.02,34.75-21.19,35.24-20.35.45.77-23.33,18.93-22.97,19.55.42.73,31.1-19.25,31.66-18.28.39.67-23.97,18.68-23.54,19.41s27.66-16.87,28.05-16.19-18.78,16.28-18.45,16.86c.38.66,25.85-16.2,26.4-15.24.33.57-22.14,17.94-21.82,18.5.45.77,28.74-17.68,29.21-16.86"/></svg>